<svg xmlns="http://www.w3.org/2000/svg" fill="none" viewBox="0 0 139 64" height="64" width="139">
<mask height="64" width="140" y="0" x="0" maskUnits="userSpaceOnUse" style="mask-type:luminance" id="mask0_730_1377">
<path fill="white" d="M139.006 0H0V63.1494H139.006V0Z"></path>
</mask>
<g mask="url(#mask0_730_1377)">
<path fill="#DF3129" d="M129.885 30.2322C133.301 30.2322 135.621 30.7252 136.854 31.7128C138.086 32.6975 138.707 34.5001 138.707 37.1121C138.707 38.9219 138.427 40.276 137.882 41.1572C137.336 42.0441 136.412 42.6349 135.121 42.9325C136.255 43.1999 137.109 43.6642 137.678 44.3283C138.246 44.9982 138.532 45.865 138.532 46.9287V51.2269H131.954V48.027C131.954 47.1976 131.757 46.6283 131.357 46.3192C130.956 46.0073 130.167 45.8535 128.994 45.8535H119.19V51.2269H112.598V30.2307H129.885V30.2322ZM129.641 35.4632H119.19V40.5951H129.641C130.518 40.5951 131.137 40.3982 131.485 39.9985C131.836 39.6004 132.013 38.8773 132.013 37.8337C132.013 37.0057 131.826 36.4034 131.451 36.0267C131.078 35.653 130.469 35.4632 129.641 35.4632ZM108.431 35.3468H91.4753V38.5251H107.444V42.9397H91.4753V46.1496H108.691V51.2297H84.9131V30.2336H108.432V35.3482L108.431 35.3468ZM61.2533 38.032H64.0133L72.6283 30.2336H81.3582L69.7216 40.5966L82.8906 51.2312H73.7538L64.0119 43.2933H61.2519V51.2312H54.6868V30.2351H61.2519V38.0335L61.2533 38.032ZM23.46 30.2322H30.0236V42.6838C30.0236 44.1041 30.3557 45.0571 31.0155 45.5387C31.6768 46.0246 33.1099 46.2646 35.3309 46.2646H39.0569C40.9026 46.2646 42.136 46.0102 42.7642 45.4941C43.3895 44.9838 43.7 44.0451 43.7 42.6838V30.2322H50.278V44.6719C50.278 47.1472 49.5981 48.8981 48.2339 49.9331C46.8697 50.9681 44.5093 51.4827 41.1571 51.4827H33.8143C29.8727 51.4827 27.1601 50.9897 25.6824 50.0007C24.2017 49.0146 23.46 47.2378 23.46 44.6719V30.2322ZM6.57656 46.1496H20.8969V51.2297H0V30.2336H6.57656V46.1496Z"></path>
<path fill="#DF3129" d="M57.7962 6.67718V10.3558C57.7962 11.8407 59.041 13.0539 60.5619 13.0539H76.8689V19.6592H57.7962C54.8062 19.6592 52.3595 17.2716 52.3595 14.3563V0L57.7962 6.67718Z" clip-rule="evenodd" fill-rule="evenodd"></path>
<path fill="black" d="M80.4382 15.8499V12.098C80.4382 10.5843 79.1674 9.34665 77.6149 9.34665H60.9859V2.61052H80.4368C83.4857 2.61052 85.9797 5.04421 85.9797 8.0184V22.6565L80.4368 15.8499H80.4382Z" clip-rule="evenodd" fill-rule="evenodd"></path>
<path fill="#DF3129" d="M62.1489 55.6096H63.6813L63.5677 55.9143L60.559 62.8876L60.503 63.0371H58.7291L58.6716 62.8876L55.6342 55.9143L55.5177 55.6096H57.2039L57.26 55.7576L59.6146 60.9858L61.9319 55.7591L61.9879 55.6096H62.1489ZM70.5511 55.8367V61.5479H74.8866V63.0371H68.967V55.6096H70.5511V55.8367ZM81.6155 55.6096H82.9682V60.3691C82.9682 60.7213 82.9481 61.0304 82.9079 61.2891C82.8662 61.5608 82.8 61.7851 82.7124 61.9604H82.7109C82.5815 62.2278 82.399 62.4506 82.1661 62.626C81.9361 62.8014 81.6558 62.9307 81.328 63.0155C81.1512 63.0601 80.8997 63.0932 80.5734 63.1147C80.2542 63.1363 79.8618 63.1464 79.3975 63.1464C79.0798 63.1464 78.7952 63.1421 78.5422 63.1349C78.2992 63.1277 78.1037 63.1176 77.9557 63.1032C77.8004 63.0889 77.6567 63.0673 77.5273 63.0386C77.385 63.0069 77.2527 62.9696 77.1334 62.925C76.8632 62.8244 76.6332 62.6936 76.4434 62.534C76.2508 62.3716 76.0984 62.1775 75.992 61.9532C75.9044 61.7707 75.8397 61.5436 75.798 61.2747C75.7577 61.0146 75.7376 60.7112 75.7376 60.3648V55.6052H77.3217V60.3691C77.3217 60.6466 77.3332 60.8708 77.3548 61.0419C77.3749 61.1942 77.4022 61.3006 77.4382 61.3596C77.4799 61.43 77.5431 61.4889 77.6308 61.5392C77.73 61.5953 77.8579 61.6384 78.0146 61.6686C78.1138 61.6873 78.2647 61.7002 78.466 61.7103C78.6644 61.7189 78.9217 61.7247 79.235 61.7247C79.6879 61.7247 80.0616 61.7132 80.3534 61.6916C80.638 61.6701 80.8436 61.6399 80.9672 61.5996C81.052 61.5737 81.1239 61.5263 81.1771 61.4587C81.2389 61.3854 81.2835 61.2805 81.3137 61.1526V61.1454C81.3367 61.0677 81.3525 60.9628 81.3611 60.8363C81.374 60.7041 81.3784 60.5488 81.3784 60.3706V55.6067H81.6112L81.6155 55.6096ZM86.5304 55.8367V58.5047H86.9458L90.2578 55.68L90.3268 55.611H92.4442L92.0619 55.9948L88.3574 59.1961L92.9373 63.0371H90.7207L86.9472 59.9451H86.5289V63.0371H84.9434V55.6096H86.5289V55.8367H86.5304ZM95.0935 57.0298V58.4874H99.3715V59.8933H95.0935V61.6169H99.5469V63.0357H93.5094V55.6081H99.5469V57.0284H95.0935V57.0298ZM102.791 58.992H105.278C105.546 58.992 105.771 58.9747 105.955 58.9431C106.126 58.9115 106.264 58.8655 106.362 58.8066H106.364C106.461 58.7476 106.537 58.6556 106.591 58.5291C106.651 58.3839 106.68 58.1956 106.68 57.9642C106.68 57.6192 106.665 57.8535 106.634 57.6436C106.605 57.4567 106.571 57.3302 106.527 57.2713C106.476 57.2009 106.381 57.1448 106.244 57.1046C106.08 57.0571 105.862 57.0312 105.589 57.0312H102.793V58.992H102.791ZM101.207 62.81V55.6096H105.576C105.954 55.6096 106.29 55.6412 106.586 55.7059C106.891 55.772 107.151 55.8726 107.364 56.0077C107.557 56.1285 107.718 56.2823 107.847 56.4649C107.975 56.646 108.073 56.8559 108.14 57.0945V57.0974C108.178 57.2368 108.206 57.3978 108.227 57.5789C108.245 57.7572 108.254 57.4381 108.254 57.6465C108.254 58.0016 108.229 58.3106 108.182 58.5737C108.132 58.8482 108.054 59.0739 107.951 59.2507C107.838 59.4462 107.683 59.6015 107.483 59.7151C107.6 59.7898 107.702 59.8804 107.79 59.9896C108.027 60.2814 108.146 60.6969 108.147 61.2287H108.149V63.0342H106.568V61.4357C106.568 61.2115 106.543 61.0275 106.494 60.8837C106.453 60.7587 106.392 60.6624 106.316 60.5991C106.224 60.5359 106.103 60.487 105.96 60.4554C105.8 60.4209 105.612 60.4051 105.393 60.4079H105.39H102.79V63.0328H101.206V62.8071L101.207 62.81ZM120.204 55.6096H121.558V60.3691C121.558 60.7213 121.538 61.0304 121.498 61.2891C121.456 61.5608 121.388 61.7851 121.302 61.9604H121.301C121.173 62.2278 120.989 62.4506 120.756 62.626C120.526 62.8014 120.247 62.9307 119.918 63.0155C119.741 63.0601 119.491 63.0932 119.163 63.1147C118.845 63.1363 118.451 63.1464 117.989 63.1464C117.672 63.1464 117.386 63.1421 117.133 63.1349C116.89 63.1277 116.695 63.1176 116.545 63.1032C116.39 63.0889 116.248 63.0673 116.117 63.0386C115.975 63.0069 115.842 62.9696 115.725 62.925C115.454 62.8244 115.223 62.6936 115.035 62.534C114.84 62.3716 114.69 62.1775 114.582 61.9532C114.494 61.7707 114.429 61.5436 114.389 61.2747C114.347 61.0146 114.327 60.7112 114.327 60.3648V55.6052H115.913V60.3691C115.913 60.6466 115.924 60.8708 115.946 61.0419C115.967 61.1942 115.993 61.3006 116.026 61.3596C116.07 61.43 116.133 61.4889 116.22 61.5392C116.32 61.5953 116.448 61.6384 116.604 61.6686C116.703 61.6873 116.854 61.7002 117.056 61.7103C117.255 61.7189 117.513 61.7247 117.825 61.7247C118.278 61.7247 118.651 61.7132 118.943 61.6916C119.228 61.6701 119.433 61.6399 119.557 61.5996H119.558C119.643 61.5737 119.715 61.5263 119.768 61.4587H119.77C119.83 61.3854 119.876 61.2805 119.905 61.1526V61.1454C119.928 61.0677 119.944 60.9628 119.952 60.8363C119.964 60.7041 119.971 60.5488 119.971 60.3706V55.6067H120.201L120.204 55.6096ZM129.693 57.8751H128.347C128.347 57.7557 128.327 57.7457 128.303 57.4064V57.4007C128.28 57.2929 128.238 57.2066 128.173 57.1419H128.172C128.107 57.0744 128.014 57.0241 127.894 56.991C127.805 56.968 127.674 56.9493 127.505 56.9364C127.329 56.9234 127.111 56.9177 126.852 56.9177C126.476 56.9177 126.172 56.9206 125.948 56.9306C125.718 56.9378 125.551 56.9507 125.452 56.968C125.285 56.9953 125.152 57.0427 125.052 57.1103C124.965 57.1707 124.9 57.2512 124.86 57.3532C124.749 57.6422 124.758 57.8966 124.889 58.1812C124.919 58.2416 124.973 58.2934 125.054 58.335C125.156 58.3868 125.295 58.4256 125.471 58.4472C125.538 58.4558 125.681 58.4659 125.898 58.4774C126.126 58.4889 126.418 58.5032 126.779 58.5162C127.199 58.532 127.544 58.5521 127.814 58.5722C128.099 58.5952 128.318 58.6197 128.477 58.6513H128.481C128.806 58.7174 129.085 58.831 129.312 58.9905C129.545 59.1515 129.724 59.3629 129.849 59.6202C130.042 60.0227 130.075 60.5991 130.075 61.0318C130.075 61.4645 129.864 62.1301 129.581 62.4434C129.41 62.6303 129.201 62.7798 128.957 62.8891C128.72 62.9954 128.448 63.0644 128.147 63.0932H128.145C127.925 63.1133 127.67 63.1277 127.381 63.1377C127.076 63.1478 126.75 63.1521 126.398 63.1521C125.954 63.1521 125.579 63.1392 125.28 63.1162C124.966 63.0917 124.728 63.0544 124.559 63.0026C124.161 62.8776 123.846 62.6634 123.615 62.3615C123.389 62.0654 123.248 61.6887 123.192 61.2316C123.152 60.9513 123.135 60.7616 123.129 60.4784H124.719V60.7055C124.719 60.9657 124.726 61.2589 124.889 61.4846C124.923 61.5335 124.963 61.5723 125.012 61.6039C125.057 61.6341 125.12 61.6585 125.199 61.6772C125.29 61.6988 125.402 61.7117 125.534 61.7161C125.696 61.7204 125.872 61.7232 126.059 61.7261C126.21 61.7261 126.42 61.7276 126.675 61.7276C126.979 61.7276 127.235 61.7232 127.439 61.7117C127.647 61.7002 127.81 61.6844 127.925 61.6643C128.03 61.6456 128.116 61.6169 128.188 61.5824C128.249 61.5507 128.298 61.5134 128.334 61.4717H128.337C128.465 61.3667 128.491 61.039 128.491 60.9182C128.491 60.7745 128.482 60.6494 128.467 60.5445C128.451 60.4496 128.431 60.372 128.405 60.3145V60.3116C128.377 60.2512 128.329 60.2009 128.258 60.1607H128.257C128.169 60.1104 128.048 60.0744 127.896 60.0557C127.807 60.0457 127.65 60.0342 127.427 60.0241C127.191 60.0126 126.891 59.9997 126.53 59.9882H126.529C126.152 59.9695 125.852 59.9551 125.625 59.9422C125.386 59.9278 125.216 59.9134 125.119 59.9019H125.114C124.782 59.8545 124.492 59.7682 124.243 59.6417C123.987 59.5124 123.776 59.3442 123.609 59.1314C123.465 58.9517 123.359 58.7275 123.289 58.4572C123.223 58.1999 123.188 57.8995 123.188 57.5588C123.188 57.0715 123.246 57.1736 123.361 56.8372C123.481 56.4807 123.67 56.2076 123.921 56.0192C124.107 55.8827 124.316 55.772 124.554 55.6915C124.784 55.6124 125.04 55.5592 125.314 55.5362H125.317C125.495 55.5233 125.699 55.5118 125.924 55.5046C126.154 55.4989 126.385 55.4931 126.618 55.4931C127.084 55.4931 127.483 55.5089 127.817 55.5391C128.153 55.5679 128.418 55.6139 128.607 55.6771C129.008 55.8079 129.322 56.0322 129.542 56.347C129.757 56.6546 129.881 57.0471 129.916 57.52V57.5257C129.92 57.6307 129.923 57.3288 129.923 57.6451V57.8722H129.691L129.693 57.8751ZM136.097 60.3936L134.797 57.3518L133.445 60.3936H136.097ZM136.642 61.7577H132.911L132.305 63.0371H130.623L133.913 55.6096H135.648L139.006 63.0371H137.332L136.642 61.7577ZM54.5575 55.8367V60.4122C54.5575 60.6451 54.5517 60.8564 54.5374 61.0419C54.5244 61.2316 54.5029 61.3941 54.4755 61.5292V61.5321C54.4439 61.6729 54.4037 61.8037 54.3548 61.9245C54.303 62.0467 54.2412 62.1631 54.1665 62.2681L54.1636 62.2709C54.0342 62.4492 53.8847 62.5987 53.7108 62.7194C53.5383 62.8402 53.3442 62.9307 53.1286 62.994C52.9547 63.0457 52.7491 63.0846 52.5134 63.1119C52.2819 63.1363 52.0203 63.1492 51.7314 63.1492C50.8775 63.1492 50.2421 63.0659 49.8267 62.902C49.5679 62.7985 49.3523 62.6576 49.1827 62.4794C49.0116 62.2997 48.888 62.0841 48.8147 61.8339C48.7773 61.7132 48.7514 61.5622 48.7327 61.3854C48.714 61.2115 48.7054 61.0131 48.7054 60.7932C48.7054 60.6293 48.7083 60.4511 48.714 60.2627C48.7184 60.0816 48.7255 59.912 48.7356 59.7539L48.7471 59.5382H50.2895V60.2383C50.2895 60.8722 50.3111 61.2647 50.3514 61.4142C50.3729 61.4803 50.4089 61.5335 50.4563 61.5737C50.5095 61.6197 50.5842 61.6514 50.6805 61.6744H50.6834C50.7524 61.6916 50.8703 61.7046 51.0356 61.7146C51.2024 61.7232 51.418 61.729 51.6854 61.729C51.9527 61.729 52.1813 61.7175 52.3524 61.6931C52.5019 61.6729 52.6082 61.6442 52.6643 61.6111C52.7376 61.5651 52.7965 61.4904 52.8425 61.3897C52.8957 61.2719 52.9288 61.1209 52.9446 60.9326V60.9297C52.9547 60.8176 52.9619 60.7127 52.9647 60.6135C52.969 60.5114 52.9719 60.3993 52.9719 60.2714V55.6096H54.556V55.8367H54.5575Z" clip-rule="evenodd" fill-rule="evenodd"></path>
</g>
</svg>
